<svg fill="none" height="155" viewBox="0 0 598 155" width="598" xmlns="http://www.w3.org/2000/svg" xmlns:xlink="http://www.w3.org/1999/xlink"><mask id="a" fill="#fff"><path d="m289.09 53.8008h-21.938v21.1992h-9.914v-51.1875h34.594v8.0508h-24.68v13.9219h21.938zm46.476-.6328c0 2.2031-.199 4.3008-.597 6.2929-.399 1.9688-.973 3.7969-1.723 5.4844-.797 1.6875-1.781 3.2344-2.953 4.6406-1.172 1.4063-2.508 2.5782-4.008 3.5157-1.359.8203-2.859 1.4531-4.5 1.8984-1.617.4688-3.363.7031-5.238.7031-1.992 0-3.832-.2578-5.52-.7734-1.687-.5156-3.222-1.2422-4.605-2.1797-1.36-.9844-2.578-2.168-3.656-3.5508-1.078-1.4062-1.981-2.9883-2.707-4.7461-.657-1.6172-1.161-3.375-1.512-5.2734-.328-1.8985-.492-3.9024-.492-6.0117v-7.4532c0-2.25.187-4.3828.562-6.3984.399-2.0156.973-3.8789 1.723-5.5898.726-1.6172 1.605-3.0821 2.637-4.3946 1.054-1.3125 2.261-2.4375 3.621-3.375 1.336-.914 2.836-1.6172 4.5-2.1093 1.664-.4922 3.468-.7383 5.414-.7383 1.968 0 3.808.2578 5.519.7734 1.735.4922 3.293 1.207 4.676 2.1445 1.383.8907 2.59 1.9688 3.621 3.2344 1.055 1.2656 1.957 2.6602 2.707 4.1836.82 1.7344 1.442 3.6328 1.863 5.6953.446 2.0625.668 4.2539.668 6.5742zm-10.019-7.5235c0-1.3125-.07-2.5547-.211-3.7265-.117-1.1953-.316-2.2969-.598-3.3047-.351-1.2656-.82-2.3906-1.406-3.375-.586-1.0078-1.277-1.8281-2.074-2.461-.633-.4687-1.348-.832-2.145-1.0898-.773-.2578-1.64-.3867-2.601-.3867-.914 0-1.746.1172-2.496.3515-.727.2344-1.383.5743-1.969 1.0196-.797.6562-1.477 1.4765-2.039 2.4609-.539.9844-.961 2.1328-1.266 3.4453-.234 1.0078-.41 2.1094-.527 3.3047-.094 1.1953-.141 2.4492-.141 3.7617v7.5235c0 1.2422.047 2.4375.141 3.5859s.258 2.2149.492 3.1992c.258 1.2422.633 2.3789 1.125 3.4102.516 1.0078 1.113 1.8281 1.793 2.4609.633.5625 1.348.9961 2.145 1.3008.82.3047 1.746.457 2.777.457.984 0 1.887-.1406 2.707-.4218.82-.2813 1.547-.6914 2.18-1.2305.796-.6563 1.464-1.4766 2.004-2.4609.562-1.0079 1.007-2.1446 1.335-3.4102.258-.9844.446-2.0625.563-3.2344.141-1.1719.211-2.3906.211-3.6562zm51.644-21.832.036 33.9258c0 2.8594-.399 5.4023-1.196 7.6289-.773 2.2266-1.898 4.1016-3.375 5.625-1.5 1.5469-3.328 2.7187-5.484 3.5156-2.133.7969-4.57 1.1953-7.313 1.1953-2.578 0-4.91-.3984-6.996-1.1953-2.062-.7969-3.832-1.957-5.308-3.4805-1.477-1.5234-2.625-3.3984-3.446-5.625-.797-2.25-1.195-4.8046-1.195-7.664l.035-33.9258h9.879l.035 33.9258c.024 1.7109.188 3.2109.492 4.5.329 1.289.809 2.3555 1.442 3.1992.586.7734 1.301 1.3594 2.144 1.7578.844.375 1.817.5625 2.918.5625 1.196 0 2.25-.1992 3.164-.5976.938-.4219 1.711-1.043 2.321-1.8633.656-.8438 1.148-1.8985 1.476-3.1641s.504-2.7305.528-4.3945l.035-33.9258zm42.891 51.1875h-9.844l-14.238-33.0117v33.0117h-9.949v-51.1875h9.949l14.133 32.8711.035-32.8711h9.914zm9.281 0v-51.1875h13.254c2.367 0 4.582.293 6.645.8789 2.062.5625 3.937 1.3711 5.625 2.4258 1.476.8672 2.789 1.9336 3.937 3.1992 1.172 1.2422 2.192 2.6016 3.059 4.0781 1.008 1.8047 1.781 3.7969 2.32 5.9766.563 2.1797.844 4.5.844 6.9609v4.2188c0 2.3672-.258 4.6054-.774 6.7148-.515 2.1094-1.242 4.043-2.179 5.8008-.891 1.5703-1.934 3.0234-3.129 4.3594-1.195 1.3125-2.508 2.414-3.938 3.3047-1.664 1.0547-3.504 1.8633-5.519 2.4257-1.992.5626-4.125.8438-6.399.8438zm9.949-43.1719v35.2266h3.797c1.219 0 2.356-.1524 3.411-.457 1.054-.3047 2.015-.75 2.882-1.336.891-.6094 1.688-1.3828 2.391-2.3203.727-.9609 1.348-2.0742 1.863-3.3398.422-1.1016.739-2.3204.949-3.6563.235-1.3594.352-2.8242.352-4.3945v-4.2891c0-1.4765-.117-2.8711-.352-4.1836-.21-1.3359-.527-2.5547-.949-3.6562-.515-1.3125-1.195-2.4844-2.039-3.5157-.82-1.0312-1.781-1.875-2.883-2.5312-.843-.4922-1.781-.8672-2.812-1.125-1.008-.2812-2.11-.4219-3.305-.4219zm65.004 20.7422h-21.023v14.4492h24.574v7.9805h-34.488v-51.1875h34.383v8.0508h-24.469v12.9023h21.023zm29.11 3.3047h-7.488v19.125h-9.879v-51.1875h17.156c2.836 0 5.402.3398 7.699 1.0195 2.297.6563 4.266 1.6289 5.906 2.918 1.618 1.2891 2.86 2.8945 3.727 4.8164.891 1.9219 1.336 4.1484 1.336 6.6797 0 1.8281-.223 3.4805-.668 4.957-.422 1.4531-1.031 2.7539-1.828 3.9024-.821 1.1718-1.805 2.1914-2.953 3.0586-1.125.8671-2.391 1.6171-3.797 2.25l11.004 21.1289v.457h-10.582zm-7.488-8.0156h7.312c1.523 0 2.859-.211 4.008-.6328 1.172-.4454 2.121-1.0782 2.847-1.8985.61-.6562 1.067-1.4414 1.372-2.3554.328-.9141.492-1.9336.492-3.0586 0-1.3594-.211-2.5547-.633-3.586-.398-1.0547-1.008-1.9219-1.828-2.6015-.727-.6094-1.617-1.0782-2.672-1.4063s-2.262-.4922-3.621-.4922h-7.277z" fill="#fff"/></mask><mask id="b" fill="#fff"><path d="m273.973 115.875h-7.489v19.125h-9.879v-51.1875h17.157c2.836 0 5.402.3398 7.699 1.0195 2.297.6563 4.266 1.6289 5.906 2.918 1.617 1.2891 2.86 2.8945 3.727 4.8164.89 1.9219 1.336 4.1484 1.336 6.6797 0 1.8279-.223 3.4809-.668 4.9569-.422 1.453-1.032 2.754-1.828 3.902-.821 1.172-1.805 2.192-2.954 3.059-1.125.867-2.39 1.617-3.796 2.25l11.004 21.129v.457h-10.583zm-7.489-8.016h7.313c1.523 0 2.859-.211 4.008-.632 1.172-.446 2.121-1.079 2.847-1.899.61-.656 1.067-1.441 1.371-2.355.329-.914.493-1.934.493-3.0589 0-1.3594-.211-2.5547-.633-3.586-.399-1.0547-1.008-1.9219-1.828-2.6015-.727-.6094-1.617-1.0782-2.672-1.4063s-2.262-.4922-3.621-.4922h-7.278zm64.864 4.711h-21.024v14.45h24.574v7.98h-34.488v-51.1875h34.383v8.0508h-24.469v12.9027h21.024zm47.285 6.399c-.164 2.578-.727 4.898-1.688 6.961-.937 2.062-2.203 3.82-3.797 5.273-1.593 1.453-3.492 2.578-5.695 3.375-2.203.774-4.641 1.16-7.312 1.16-2.11 0-4.067-.269-5.871-.808-1.782-.563-3.387-1.36-4.817-2.391-1.312-.961-2.484-2.121-3.515-3.48-1.008-1.36-1.864-2.86-2.567-4.5-.68-1.641-1.207-3.446-1.582-5.414-.351-1.969-.527-4.055-.527-6.258v-6.891c0-2.062.164-4.019.492-5.871.328-1.875.82-3.6094 1.476-5.2031.75-1.9453 1.735-3.6797 2.954-5.2031 1.218-1.5235 2.601-2.8126 4.148-3.8672 1.383-.8907 2.895-1.5704 4.535-2.0391 1.664-.4922 3.445-.7383 5.344-.7383 2.812 0 5.309.3985 7.488 1.1953 2.203.7969 4.078 1.9336 5.625 3.4102 1.547 1.4765 2.766 3.2812 3.656 5.4141.891 2.1328 1.454 4.5351 1.688 7.2072h-9.844c-.094-1.5237-.328-2.8596-.703-4.008-.351-1.1485-.867-2.1094-1.547-2.8828-.703-.75-1.582-1.3125-2.636-1.6875-1.032-.3985-2.274-.5977-3.727-.5977-.773 0-1.5.082-2.18.2461-.656.1641-1.265.4101-1.828.7383-.961.5625-1.781 1.3711-2.461 2.4258-.656 1.0312-1.183 2.2382-1.582 3.621-.305 1.0782-.527 2.2738-.668 3.5858-.14 1.289-.211 2.684-.211 4.184v6.961c0 2.039.106 3.867.317 5.484.234 1.594.586 2.988 1.054 4.184.328.82.715 1.547 1.16 2.179.469.633.997 1.161 1.583 1.582.632.469 1.335.821 2.109 1.055.797.211 1.676.317 2.637.317 1.289 0 2.449-.165 3.48-.493s1.91-.843 2.637-1.547c.726-.703 1.301-1.605 1.722-2.707.422-1.101.68-2.425.774-3.972zm43.418-5.801c0 2.203-.199 4.301-.598 6.293-.398 1.969-.973 3.797-1.723 5.484-.796 1.688-1.781 3.235-2.953 4.641s-2.507 2.578-4.007 3.516c-1.36.82-2.86 1.453-4.5 1.898-1.618.469-3.364.703-5.239.703-1.992 0-3.832-.258-5.519-.773-1.688-.516-3.223-1.242-4.606-2.18-1.359-.984-2.578-2.168-3.656-3.551-1.078-1.406-1.98-2.988-2.707-4.746-.656-1.617-1.16-3.375-1.512-5.273-.328-1.899-.492-3.903-.492-6.012v-7.453c0-2.25.188-4.383.563-6.3986.398-2.0156.972-3.8789 1.722-5.5898.727-1.6172 1.606-3.0821 2.637-4.3946 1.055-1.3125 2.262-2.4375 3.621-3.375 1.336-.914 2.836-1.6172 4.5-2.1093 1.664-.4922 3.469-.7383 5.414-.7383 1.969 0 3.809.2578 5.52.7734 1.734.4922 3.293 1.207 4.675 2.1445 1.383.8907 2.59 1.9688 3.621 3.2344 1.055 1.2656 1.958 2.6602 2.708 4.1836.82 1.7344 1.441 3.6328 1.863 5.6953.445 2.0624.668 4.2544.668 6.5744zm-10.02-7.523c0-1.313-.07-2.555-.211-3.727-.117-1.195-.316-2.2969-.597-3.3047-.352-1.2656-.821-2.3906-1.407-3.375-.586-1.0078-1.277-1.8281-2.074-2.461-.633-.4687-1.347-.832-2.144-1.0898-.774-.2578-1.641-.3867-2.602-.3867-.914 0-1.746.1172-2.496.3515-.727.2344-1.383.5743-1.969 1.0196-.797.6562-1.476 1.4765-2.039 2.4609-.539.9844-.961 2.1328-1.265 3.4453-.235 1.0078-.411 2.1099-.528 3.3049-.094 1.195-.14 2.449-.14 3.762v7.523c0 1.242.046 2.437.14 3.586.094 1.148.258 2.215.492 3.199.258 1.242.633 2.379 1.125 3.41.516 1.008 1.114 1.828 1.793 2.461.633.563 1.348.996 2.145 1.301.82.305 1.746.457 2.777.457.985 0 1.887-.141 2.707-.422.821-.281 1.547-.691 2.18-1.23.797-.657 1.465-1.477 2.004-2.461.562-1.008 1.008-2.145 1.336-3.41.258-.985.445-2.063.562-3.235.141-1.172.211-2.39.211-3.656zm29.496 29.355-15.468-51.1875h10.898l8.684 33.4335.879 3.445.949-3.48 8.719-33.3985h10.898l-15.504 51.1875zm62.789-22.43h-21.023v14.45h24.574v7.98h-34.488v-51.1875h34.383v8.0508h-24.469v12.9027h21.023zm29.11 3.305h-7.488v19.125h-9.879v-51.1875h17.156c2.836 0 5.402.3398 7.699 1.0195 2.297.6563 4.266 1.6289 5.906 2.918 1.618 1.2891 2.86 2.8945 3.727 4.8164.891 1.9219 1.336 4.1484 1.336 6.6797 0 1.8279-.223 3.4809-.668 4.9569-.422 1.453-1.031 2.754-1.828 3.902-.821 1.172-1.805 2.192-2.953 3.059-1.125.867-2.391 1.617-3.797 2.25l11.004 21.129v.457h-10.582zm-7.488-8.016h7.312c1.523 0 2.859-.211 4.008-.632 1.172-.446 2.121-1.079 2.847-1.899.61-.656 1.067-1.441 1.372-2.355.328-.914.492-1.934.492-3.0589 0-1.3594-.211-2.5547-.633-3.586-.398-1.0547-1.008-1.9219-1.828-2.6015-.727-.6094-1.617-1.0782-2.672-1.4063s-2.262-.4922-3.621-.4922h-7.277zm50.835-.457 10.09-23.5895h10.864l-16.102 33.4685-.035 17.719h-9.844l-.035-18.141-15.856-33.0465h10.829z" fill="#fff"/></mask><g stroke-width="12"><path d="m51 123c24.8528 0 45-20.147 45-45 0-24.8528-20.1472-45-45-45s-45 20.1472-45 45c0 24.853 20.1472 45 45 45z" stroke="#b83dba"/><path d="m111 123c24.853 0 45-20.147 45-45 0-24.8528-20.147-45-45-45-24.8528 0-45 20.1472-45 45 0 24.853 20.1472 45 45 45z" stroke="#a855f7"/><path d="m171 123c24.853 0 45-20.147 45-45 0-24.8528-20.147-45-45-45s-45 20.1472-45 45c0 24.853 20.147 45 45 45z" stroke="#9333ea"/></g><path d="m289.09 53.8008h-21.938v21.1992h-9.914v-51.1875h34.594v8.0508h-24.68v13.9219h21.938zm46.476-.6328c0 2.2031-.199 4.3008-.597 6.2929-.399 1.9688-.973 3.7969-1.723 5.4844-.797 1.6875-1.781 3.2344-2.953 4.6406-1.172 1.4063-2.508 2.5782-4.008 3.5157-1.359.8203-2.859 1.4531-4.5 1.8984-1.617.4688-3.363.7031-5.238.7031-1.992 0-3.832-.2578-5.52-.7734-1.687-.5156-3.222-1.2422-4.605-2.1797-1.36-.9844-2.578-2.168-3.656-3.5508-1.078-1.4062-1.981-2.9883-2.707-4.7461-.657-1.6172-1.161-3.375-1.512-5.2734-.328-1.8985-.492-3.9024-.492-6.0117v-7.4532c0-2.25.187-4.3828.562-6.3984.399-2.0156.973-3.8789 1.723-5.5898.726-1.6172 1.605-3.0821 2.637-4.3946 1.054-1.3125 2.261-2.4375 3.621-3.375 1.336-.914 2.836-1.6172 4.5-2.1093 1.664-.4922 3.468-.7383 5.414-.7383 1.968 0 3.808.2578 5.519.7734 1.735.4922 3.293 1.207 4.676 2.1445 1.383.8907 2.59 1.9688 3.621 3.2344 1.055 1.2656 1.957 2.6602 2.707 4.1836.82 1.7344 1.442 3.6328 1.863 5.6953.446 2.0625.668 4.2539.668 6.5742zm-10.019-7.5235c0-1.3125-.07-2.5547-.211-3.7265-.117-1.1953-.316-2.2969-.598-3.3047-.351-1.2656-.82-2.3906-1.406-3.375-.586-1.0078-1.277-1.8281-2.074-2.461-.633-.4687-1.348-.832-2.145-1.0898-.773-.2578-1.64-.3867-2.601-.3867-.914 0-1.746.1172-2.496.3515-.727.2344-1.383.5743-1.969 1.0196-.797.6562-1.477 1.4765-2.039 2.4609-.539.9844-.961 2.1328-1.266 3.4453-.234 1.0078-.41 2.1094-.527 3.3047-.094 1.1953-.141 2.4492-.141 3.7617v7.5235c0 1.2422.047 2.4375.141 3.5859s.258 2.2149.492 3.1992c.258 1.2422.633 2.3789 1.125 3.4102.516 1.0078 1.113 1.8281 1.793 2.4609.633.5625 1.348.9961 2.145 1.3008.82.3047 1.746.457 2.777.457.984 0 1.887-.1406 2.707-.4218.82-.2813 1.547-.6914 2.18-1.2305.796-.6563 1.464-1.4766 2.004-2.4609.562-1.0079 1.007-2.1446 1.335-3.4102.258-.9844.446-2.0625.563-3.2344.141-1.1719.211-2.3906.211-3.6562zm51.644-21.832.036 33.9258c0 2.8594-.399 5.4023-1.196 7.6289-.773 2.2266-1.898 4.1016-3.375 5.625-1.5 1.5469-3.328 2.7187-5.484 3.5156-2.133.7969-4.57 1.1953-7.313 1.1953-2.578 0-4.91-.3984-6.996-1.1953-2.062-.7969-3.832-1.957-5.308-3.4805-1.477-1.5234-2.625-3.3984-3.446-5.625-.797-2.25-1.195-4.8046-1.195-7.664l.035-33.9258h9.879l.035 33.9258c.024 1.7109.188 3.2109.492 4.5.329 1.289.809 2.3555 1.442 3.1992.586.7734 1.301 1.3594 2.144 1.7578.844.375 1.817.5625 2.918.5625 1.196 0 2.25-.1992 3.164-.5976.938-.4219 1.711-1.043 2.321-1.8633.656-.8438 1.148-1.8985 1.476-3.1641s.504-2.7305.528-4.3945l.035-33.9258zm42.891 51.1875h-9.844l-14.238-33.0117v33.0117h-9.949v-51.1875h9.949l14.133 32.8711.035-32.8711h9.914zm9.281 0v-51.1875h13.254c2.367 0 4.582.293 6.645.8789 2.062.5625 3.937 1.3711 5.625 2.4258 1.476.8672 2.789 1.9336 3.937 3.1992 1.172 1.2422 2.192 2.6016 3.059 4.0781 1.008 1.8047 1.781 3.7969 2.32 5.9766.563 2.1797.844 4.5.844 6.9609v4.2188c0 2.3672-.258 4.6054-.774 6.7148-.515 2.1094-1.242 4.043-2.179 5.8008-.891 1.5703-1.934 3.0234-3.129 4.3594-1.195 1.3125-2.508 2.414-3.938 3.3047-1.664 1.0547-3.504 1.8633-5.519 2.4257-1.992.5626-4.125.8438-6.399.8438zm9.949-43.1719v35.2266h3.797c1.219 0 2.356-.1524 3.411-.457 1.054-.3047 2.015-.75 2.882-1.336.891-.6094 1.688-1.3828 2.391-2.3203.727-.9609 1.348-2.0742 1.863-3.3398.422-1.1016.739-2.3204.949-3.6563.235-1.3594.352-2.8242.352-4.3945v-4.2891c0-1.4765-.117-2.8711-.352-4.1836-.21-1.3359-.527-2.5547-.949-3.6562-.515-1.3125-1.195-2.4844-2.039-3.5157-.82-1.0312-1.781-1.875-2.883-2.5312-.843-.4922-1.781-.8672-2.812-1.125-1.008-.2812-2.11-.4219-3.305-.4219zm65.004 20.7422h-21.023v14.4492h24.574v7.9805h-34.488v-51.1875h34.383v8.0508h-24.469v12.9023h21.023zm29.11 3.3047h-7.488v19.125h-9.879v-51.1875h17.156c2.836 0 5.402.3398 7.699 1.0195 2.297.6563 4.266 1.6289 5.906 2.918 1.618 1.2891 2.86 2.8945 3.727 4.8164.891 1.9219 1.336 4.1484 1.336 6.6797 0 1.8281-.223 3.4805-.668 4.957-.422 1.4531-1.031 2.7539-1.828 3.9024-.821 1.1718-1.805 2.1914-2.953 3.0586-1.125.8671-2.391 1.6171-3.797 2.25l11.004 21.1289v.457h-10.582zm-7.488-8.0156h7.312c1.523 0 2.859-.211 4.008-.6328 1.172-.4454 2.121-1.0782 2.847-1.8985.61-.6562 1.067-1.4414 1.372-2.3554.328-.9141.492-1.9336.492-3.0586 0-1.3594-.211-2.5547-.633-3.586-.398-1.0547-1.008-1.9219-1.828-2.6015-.727-.6094-1.617-1.0782-2.672-1.4063s-2.262-.4922-3.621-.4922h-7.277z" fill="#1e1b4b"/><path d="m289.09 53.8008v1h1v-1zm-21.938 0v-1h-1v1zm0 21.1992v1h1v-1zm-9.914 0h-1v1h1zm0-51.1875v-1h-1v1zm34.594 0h1v-1h-1zm0 8.0508v1h1v-1zm-24.68 0v-1h-1v1zm0 13.9219h-1v1h1zm21.938 0h1v-1h-1zm0 8.0156v-1h-21.938v1 1h21.938zm-21.938 0h-1v21.1992h1 1v-21.1992zm0 21.1992v-1h-9.914v1 1h9.914zm-9.914 0h1v-51.1875h-1-1v51.1875zm0-51.1875v1h34.594v-1-1h-34.594zm34.594 0h-1v8.0508h1 1v-8.0508zm0 8.0508v-1h-24.68v1 1h24.68zm-24.68 0h-1v13.9219h1 1v-13.9219zm0 13.9219v1h21.938v-1-1h-21.938zm21.938 0h-1v8.0156h1 1v-8.0156zm45.879 13.6757.98.1984v-.0022zm-1.723 5.4844.904.427.005-.0104.005-.0105zm-6.961 8.1563.517.8561.007-.004.006-.0041zm-4.5 1.8984-.262-.9651-.008.0023-.008.0023zm-15.363-2.25-.587.8099.013.0091.013.0087zm-3.656-3.5508-.794.6085.005.0064zm-2.707-4.7461-.927.376.002.006zm-1.512-5.2734-.986.1703.003.0118zm.07-19.8633-.981-.1939-.002.011zm1.723-5.5898-.912-.4099-.004.0084zm2.637-4.3946-.78-.6264-.007.0086zm3.621-3.375-.565-.8253-.003.0021zm15.433-2.0742-.288.9575.007.0023.008.0022zm4.676 2.1445-.561.8278.01.0066.01.0064zm3.621 3.2344-.775.6317.007.0085zm2.707 4.1836.904-.4276-.003-.007-.004-.0071zm1.863 5.6953-.979.2004.002.0107zm-9.562 2.7774-.995.0975.001.0108.001.0108zm-.598-3.3047-.963.2676v.0012zm-1.406-3.375-.865.5026.006.0089zm-2.074-2.461.622-.7831-.013-.0104-.014-.01zm-2.145-1.0898-.316.9487.008.0027zm-5.097-.0352-.299-.9545-.008.0028zm-1.969 1.0196-.605-.7962-.016.0118-.015.0124zm-2.039 2.4609-.868-.4961-.005.0078-.004.008zm-1.266 3.4453.974.2265v-.0003zm-.527 3.3047-.995-.0976-.001.0097-.001.0097zm.492 18.0703.979-.2032-.003-.0142-.003-.0142zm1.125 3.4102-.902.4307.005.0125.007.0123zm1.793 2.4609-.681.7319.008.0079.009.0076zm2.145 1.3008-.358.9341.009.0033zm7.664-1.1953-.636-.7719-.007.0052-.006.0054zm2.004-2.4609-.874-.4874-.004.007zm1.335-3.4102-.967-.2534-.001.0024zm.563-3.2344-.993-.1191-.001.0098-.001.0098zm10.23-3.6562h-1c0 2.1427-.193 4.1744-.578 6.0968l.981.1961.98.1962c.413-2.062.617-4.2256.617-6.4891zm-.597 6.2929-.98-.1983c-.386 1.9034-.939 3.6612-1.657 5.2766l.914.4061.914.4061c.782-1.7596 1.377-3.6581 1.789-5.6921zm-1.723 5.4844-.904-.427c-.762 1.6125-1.701 3.0875-2.817 4.4275l.768.6401.768.6402c1.227-1.4725 2.257-3.0913 3.089-4.8538zm-2.953 4.6406-.768-.6401c-1.107 1.3276-2.363 2.4284-3.77 3.3078l.53.848.53.848c1.593-.9957 3.009-2.2386 4.246-3.7235zm-4.008 3.5157-.517-.8562c-1.274.7691-2.687 1.3668-4.245 1.7895l.262.9651.262.9651c1.724-.4679 3.311-1.1358 4.755-2.0074zm-4.5 1.8984-.278-.9605c-1.517.4398-3.169.6636-4.96.6636v1 1c1.959 0 3.799-.2449 5.517-.7426zm-5.238.7031v-1c-1.906 0-3.646-.2465-5.227-.7298l-.293.9564-.292.9563c1.794.5481 3.733.8171 5.812.8171zm-5.52-.7734.293-.9564c-1.598-.488-3.041-1.1727-4.337-2.051l-.561.8277-.561.8277c1.47.9967 3.096 1.7652 4.874 2.3083zm-4.605-2.1797.586-.8099c-1.279-.9268-2.431-2.0438-3.454-3.3557l-.788.6148-.789.6149c1.133 1.4537 2.419 2.7039 3.858 3.7458zm-3.656-3.5508.793-.6084c-1.021-1.3319-1.881-2.8368-2.576-4.5197l-.924.382-.925.382c.758 1.8328 1.703 3.492 2.838 4.9725zm-2.707-4.7461.926-.376c-.628-1.5484-1.114-3.2405-1.455-5.0795l-.983.1821-.983.1821c.362 1.9579.884 3.7814 1.568 5.4673zm-1.512-5.2734.985-.1703c-.317-1.8372-.477-3.7838-.477-5.8414h-1-1c0 2.1611.168 4.2223.506 6.182zm-.492-6.0117h1v-7.4532h-1-1v7.4532zm0-7.4532h1c0-2.1945.183-4.2657.545-6.2155l-.983-.1829-.983-.1829c-.387 2.0815-.579 4.2759-.579 6.5813zm.562-6.3984.981.1939c.386-1.9513.94-3.7442 1.658-5.3823l-.916-.4014-.916-.4015c-.782 1.7838-1.377 3.7174-1.788 5.7974zm1.723-5.5898.912.4098c.695-1.5476 1.533-2.9418 2.511-4.1865l-.786-.6179-.787-.6178c-1.084 1.3803-2.004 2.9158-2.762 4.6025zm2.637-4.3946.779.6264c.995-1.2385 2.131-2.2967 3.409-3.1782l-.567-.8232-.568-.8232c-1.441.9936-2.719 2.1853-3.833 3.5718zm3.621-3.375.564.8253c1.244-.851 2.648-1.511 4.219-1.9757l-.283-.9589-.284-.959c-1.757.5197-3.353 1.2659-4.781 2.243zm4.5-2.1093.283.9589c1.562-.4619 3.27-.6972 5.131-.6972v-1-1c-2.03 0-3.931.2568-5.698.7793zm5.414-.7383v1c1.881 0 3.622.2462 5.231.7309l.288-.9575.289-.9575c-1.814-.5465-3.752-.8159-5.808-.8159zm5.519.7734-.273.962c1.64.4654 3.1 1.1372 4.388 2.0103l.561-.8278.561-.8277c-1.478-1.0019-3.135-1.7598-4.964-2.2788zm4.676 2.1445-.541.8408c1.295.8341 2.423 1.8418 3.387 3.0253l.775-.6317.775-.6317c-1.098-1.3477-2.384-2.4962-3.854-3.4434zm3.621 3.2344-.768.6402c1.002 1.203 1.862 2.5305 2.578 3.9851l.897-.4417.897-.4417c-.784-1.5923-1.729-3.0538-2.836-4.3821zm2.707 4.1836-.904.4276c.783 1.6553 1.38 3.4766 1.788 5.4681l.979-.2004.98-.2004c-.436-2.1334-1.081-4.109-1.939-5.9225zm1.863 5.6953-.977.2111c.429 1.9866.645 4.1068.645 6.3631h1 1c0-2.3843-.228-4.6469-.69-6.7852zm.668 6.5742h-1v7.4532h1 1v-7.4532zm-10.019-.0703h1c0-1.3479-.072-2.6302-.218-3.8457l-.993.1192-.993.1191c.135 1.1283.204 2.3304.204 3.6074zm-.211-3.7265.995-.0976c-.122-1.2449-.331-2.4046-.63-3.4759l-.963.2688-.963.2688c.264.9443.453 1.9877.566 3.1334zm-.598-3.3047.964-.2677c-.372-1.3389-.873-2.5479-1.511-3.6188l-.859.5115-.859.5115c.534.8978.971 1.9388 1.302 3.1311zm-1.406-3.375.865-.5026c-.64-1.1001-1.41-2.0207-2.317-2.7415l-.622.7831-.622.7832c.686.5448 1.299 1.2649 1.832 2.1804zm-2.074-2.461.595-.8035c-.725-.5373-1.538-.9487-2.432-1.2377l-.308.9514-.308.9514c.701.2266 1.317.5418 1.858.942zm-2.145-1.0898.317-.9487c-.892-.2972-1.869-.438-2.918-.438v1 1c.872 0 1.63.117 2.285.3354zm-2.601-.3867v-1c-.999 0-1.934.1281-2.795.3971l.299.9544.298.9545c.639-.1997 1.369-.306 2.198-.306zm-2.496.3515-.307-.9517c-.83.2678-1.588.659-2.267 1.1751l.605.7962.605.7961c.493-.3744 1.047-.6629 1.671-.8639zm-1.969 1.0196-.636-.772c-.899.7406-1.655 1.6575-2.271 2.7368l.868.4961.868.4962c.508-.8895 1.112-1.6132 1.807-2.1852zm-2.039 2.4609-.877-.4803c-.591 1.0784-1.042 2.3154-1.363 3.6995l.974.2261.974.2262c.288-1.2409.681-2.3008 1.169-3.1912zm-1.266 3.4453-.974-.2265c-.245 1.0564-.428 2.2016-.548 3.4336l.995.0976.995.0976c.114-1.1586.283-2.2165.506-3.1758zm-.527 3.3047-.997-.0782c-.096 1.2236-.144 2.5038-.144 3.8399h1 1c0-1.2888.046-2.5165.138-3.6835zm-.141 3.7617h-1v7.5235h1 1v-7.5235zm0 7.5235h-1c0 1.2672.048 2.4898.144 3.6673l.997-.0814.997-.0814c-.092-1.1193-.138-2.2874-.138-3.5045zm.141 3.5859-.997.0814c.097 1.1922.269 2.3094.516 3.3494l.973-.2316.973-.2316c-.221-.9287-.378-1.9443-.468-3.049zm.492 3.1992-.979.2032c.272 1.3123.671 2.5265 1.202 3.6377l.902-.4307.903-.4307c-.455-.9514-.806-2.0106-1.049-3.1827zm1.125 3.4102-.89.4555c.557 1.0894 1.22 2.01 2.002 2.7373l.681-.7319.681-.7319c-.578-.5383-1.11-1.2583-1.584-2.1845zm1.793 2.4609-.664.7474c.723.6434 1.543 1.14 2.451 1.4875l.358-.9341.357-.9341c-.685-.2618-1.296-.6325-1.838-1.1141zm2.145 1.3008-.349.9374c.95.3528 1.997.5196 3.126.5196v-1-1c-.933 0-1.738-.1378-2.429-.3944zm2.777.457v1c1.08 0 2.093-.1544 3.031-.4759l-.324-.9459-.324-.946c-.703.241-1.494.3678-2.383.3678zm2.707-.4218.324.9459c.934-.3202 1.772-.7913 2.504-1.4152l-.648-.7612-.649-.7613c-.533.4543-1.149.8035-1.855 1.0458zm2.18-1.2305.635.7719c.904-.744 1.651-1.6663 2.246-2.7525l-.877-.4803-.878-.4804c-.483.8825-1.072 1.6009-1.762 2.1694zm2.004-2.4609.873.4873c.609-1.0913 1.084-2.3091 1.43-3.6465l-.968-.251-.968-.251c-.309 1.1939-.725 2.2495-1.241 3.1738zm1.335-3.4102.968.2534c.273-1.042.468-2.1724.59-3.3883l-.995-.0995-.995-.0995c-.113 1.1279-.292 2.1538-.535 3.0805zm.563-3.2344.993.1192c.146-1.2142.218-2.4728.218-3.7754h-1-1c0 1.2286-.068 2.4075-.204 3.5371zm.211-3.6562h1v-7.5235h-1-1v7.5235zm51.644-29.3555 1-.001-.001-.999h-.999zm.036 33.9258h1v-.0011zm-1.196 7.6289-.941-.337-.003.0089zm-3.375 5.625.718.6961v-.0001zm-5.484 3.5156-.347-.938-.003.0013zm-14.309 0-.36.9328.003.0014zm-8.754-9.1055-.942.3339.004.0118zm-1.195-7.664-1-.0011v.0011zm.035-33.9258v-1h-.999l-.001.999zm9.879 0 1-.001-.001-.999h-.999zm.035 33.9258-1 .001v.0127zm.492 4.5-.973.23.002.0084.002.0083zm1.442 3.1992-.8.6.003.0039zm2.144 1.7578-.427.9043.011.0049.01.0046zm6.082-.0351.4.9167.011-.0048zm2.321-1.8633-.79-.614-.006.0088-.007.0089zm2.004-7.5586 1 .0141v-.0131zm.035-33.9258v-1h-.999l-.001.999zm9.808 0-1 .001.036 33.9258 1-.001 1-.0011-.036-33.9257zm.036 33.9258h-1c0 2.7678-.386 5.1934-1.137 7.2919l.941.337.942.337c.842-2.3547 1.254-5.015 1.254-7.9659zm-1.196 7.6289-.944-.3281c-.731 2.1043-1.784 3.8494-3.149 5.2571l.718.696.718.696c1.589-1.6392 2.786-3.6441 3.602-5.9929zm-3.375 5.625-.718-.6962c-1.389 1.4325-3.087 2.5252-5.113 3.2738l.347.938.347.938c2.286-.8452 4.244-2.0961 5.855-3.7575zm-5.484 3.5156-.35-.9367c-2.001.7474-4.316 1.132-6.963 1.132v1 1c2.838 0 5.398-.4123 7.663-1.2585zm-7.313 1.1953v-1c-2.474 0-4.683-.3823-6.639-1.1294l-.357.9341-.357.9342c2.216.8465 4.672 1.2611 7.353 1.2611zm-6.996-1.1953.361-.9328c-1.934-.747-3.58-1.8285-4.951-3.2436l-.718.6959-.718.696c1.581 1.6317 3.474 2.8705 5.666 3.7173zm-5.308-3.4805.718-.6959c-1.369-1.4121-2.447-3.1635-3.225-5.2748l-.939.3457-.938.3457c.863 2.3419 2.081 4.3405 3.666 5.9753zm-3.446-5.625.943-.3338c-.752-2.124-1.138-4.5627-1.138-7.3302h-1-1c0 2.9512.411 5.6218 1.253 7.9979zm-1.195-7.664 1 .001.035-33.9258-1-.001-1-.001-.035 33.9257zm.035-33.9258v1h9.879v-1-1h-9.879zm9.879 0-1 .001.035 33.9258 1-.001 1-.0011-.035-33.9257zm.035 33.9258-1 .0137c.025 1.7639.194 3.3393.519 4.7163l.973-.23.974-.23c-.284-1.2011-.443-2.6257-.466-4.2837zm.492 4.5-.969.2467c.353 1.3846.881 2.5796 1.611 3.5525l.8-.6.8-.6c-.536-.7146-.969-1.6525-1.272-2.8459zm1.442 3.1992-.797.6039c.679.8966 1.519 1.5881 2.514 2.0582l.427-.9043.427-.9042c-.692-.3269-1.281-.8072-1.774-1.4575zm2.144 1.7578-.406.9138c.994.4417 2.109.6487 3.324.6487v-1-1c-.988 0-1.818-.168-2.511-.4763zm2.918.5625v1c1.306 0 2.501-.2178 3.564-.6809l-.4-.9167-.399-.9167c-.766.3337-1.68.5143-2.765.5143zm3.164-.5976.411.9119c1.092-.4915 2.001-1.2208 2.712-2.1789l-.802-.5963-.803-.5963c-.507.6825-1.145 1.1953-1.928 1.5476zm2.321-1.8633.789.6139c.756-.9725 1.3-2.1582 1.655-3.527l-.968-.251-.968-.2509c-.301 1.1624-.741 2.086-1.298 2.801zm1.476-3.1641.968.251c.353-1.3607.535-2.908.56-4.6314l-1-.0141-1-.0141c-.023 1.6047-.192 2.9871-.496 4.1577zm.528-4.3945 1 .001.035-33.9258-1-.001-1-.001-.035 33.9257zm.035-33.9258v1h9.808v-1-1h-9.808zm52.699 51.1875v1h1v-1zm-9.844 0-.918.396.261.604h.657zm-14.238-33.0117.918-.3961-1.918.3961zm0 33.0117v1h1v-1zm-9.949 0h-1v1h1zm0-51.1875v-1h-1v1zm9.949 0 .919-.395-.26-.605h-.659zm14.133 32.8711-.919.395 1.919-.3939zm.035-32.8711v-1h-.999l-.001.9989zm9.914 0h1v-1h-1zm0 51.1875v-1h-9.844v1 1h9.844zm-9.844 0 .919-.396-14.239-33.0118-.918.3961-.918.396 14.238 33.0117zm-14.238-33.0117h-1v33.0117h1 1v-33.0117zm0 33.0117v-1h-9.949v1 1h9.949zm-9.949 0h1v-51.1875h-1-1v51.1875zm0-51.1875v1h9.949v-1-1h-9.949zm9.949 0-.919.395 14.133 32.8711.919-.395.918-.395-14.132-32.8711zm14.133 32.8711 1 .0011.035-32.8711-1-.0011-1-.0011-.035 32.8711zm.035-32.8711v1h9.914v-1-1h-9.914zm9.914 0h-1v51.1875h1 1v-51.1875zm9.281 51.1875h-1v1h1zm0-51.1875v-1h-1v1zm19.899.8789-.274.962.011.0028zm5.625 2.4258-.53.848.011.0073.012.007zm3.937 3.1992-.74.672.006.0072.007.007zm3.059 4.0781.873-.4875-.005-.0095-.006-.0094zm2.32 5.9766-.971.2401.003.0098zm-2.109 23.6953.87.4933.006-.0112.006-.0115zm-3.129 4.3594.739.6733.006-.0065zm-3.938 3.3047-.528-.8488-.007.0041zm-5.519 2.4257-.269-.9632-.003.0009zm-10.196-42.3281v-1h-1v1zm0 35.2266h-1v1h1zm10.09-1.793.56.8286.005-.0033zm2.391-2.3203-.798-.6031-.002.0031zm1.863-3.3398.926.3773.004-.0098.004-.0099zm.949-3.6563-.985-.1699-.002.0139zm0-12.8672-.987.156.001.0099.002.0099zm-.949-3.6562.934-.3577-.003-.008zm-2.039-3.5157-.782.6226.008.0107zm-2.883-2.5312.512-.8591-.008-.0047zm-2.812-1.125-.269.9632.013.0036.013.0033zm-16.559 42.75h1v-51.1875h-1-1v51.1875zm0-51.1875v1h13.254v-1-1h-13.254zm13.254 0v1c2.284 0 4.407.2826 6.371.8408l.274-.9619.273-.9619c-2.16-.6137-4.468-.917-6.918-.917zm6.645.8789-.263.9648c1.975.5387 3.759 1.3097 5.358 2.309l.53-.848.53-.848c-1.776-1.1101-3.742-1.9563-5.892-2.5426zm5.625 2.4258-.507.8623c1.39.816 2.623 1.8183 3.704 3.0089l.74-.672.741-.672c-1.217-1.3407-2.608-2.4712-4.172-3.3895zm3.937 3.1992-.727.6862c1.12 1.1874 2.094 2.4864 2.924 3.8984l.862-.5065.862-.5064c-.905-1.5412-1.97-2.9609-3.193-4.2579zm3.059 4.0781-.873.4876c.961 1.7205 1.703 3.6285 2.222 5.7291l.971-.2401.971-.2401c-.559-2.2588-1.363-4.3352-2.418-6.224zm2.32 5.9766-.968.2499c.539 2.0908.812 4.3266.812 6.711h1 1c0-2.5374-.29-4.9423-.876-7.2108zm.844 6.9609h-1v4.2188h1 1v-4.2188zm0 4.2188h-1c0 2.2943-.25 4.4523-.745 6.4774l.971.2374.972.2375c.536-2.1937.802-4.5122.802-6.9523zm-.774 6.7148-.971-.2374c-.498 2.0354-1.196 3.8898-2.091 5.5676l.883.4706.882.4706c.98-1.8378 1.735-3.8506 2.269-6.0339zm-2.179 5.8008-.87-.4933c-.856 1.5086-1.857 2.9035-3.004 4.1859l.745.6668.745.6668c1.243-1.3895 2.328-2.9009 3.254-4.5329zm-3.129 4.3594-.74-.6734c-1.136 1.2483-2.379 2.2898-3.726 3.1293l.528.8488.529.8487c1.512-.9417 2.894-2.1034 4.148-3.4801zm-3.938 3.3047-.535-.8447c-1.577.9992-3.326 1.7694-5.253 2.3073l.269.9631.269.9632c2.104-.5871 4.034-1.4341 5.786-2.5443zm-5.519 2.4257-.272-.9623c-1.895.5352-3.936.8061-6.127.8061v1 1c2.357 0 4.582-.2916 6.671-.8814zm-6.399.8438v-1h-13.746v1 1h13.746zm-3.797-43.1719h-1v35.2266h1 1v-35.2266zm0 35.2266v1h3.797v-1-1h-3.797zm3.797 0v1c1.303 0 2.534-.1629 3.688-.4963l-.277-.9607-.278-.9608c-.955.276-1.998.4178-3.133.4178zm3.411-.457.277.9607c1.15-.3323 2.207-.8208 3.165-1.4681l-.56-.8286-.56-.8286c-.776.5246-1.641.9267-2.6 1.2038zm2.882-1.336.565.8253c.988-.6762 1.863-1.5281 2.626-2.5456l-.8-.6-.8-.6c-.643.8576-1.362 1.5525-2.155 2.095zm2.391-2.3203.798.6031c.785-1.0389 1.447-2.2301 1.991-3.5656l-.926-.3773-.926-.3773c-.487 1.1957-1.067 2.231-1.735 3.114zm1.863-3.3398.934.3576c.45-1.1754.783-2.4629 1.003-3.8579l-.988-.156-.987-.156c-.202 1.2769-.502 2.4269-.896 3.4546zm.949-3.6563.986.1699c.245-1.4225.366-2.9448.366-4.5644h-1-1c0 1.521-.114 2.9284-.337 4.2246zm.352-4.3945h1v-4.2891h-1-1v4.2891zm0-4.2891h1c0-1.5293-.121-2.983-.367-4.3594l-.985.1758-.984.1758c.223 1.2487.336 2.584.336 4.0078zm-.352-4.1836.988-.1559c-.22-1.3951-.553-2.6826-1.003-3.858l-.934.3577-.934.3576c.394 1.0278.694 2.1778.896 3.4546zm-.949-3.6562.931-.3657c-.551-1.4036-1.282-2.6669-2.196-3.7832l-.774.6332-.774.6333c.774.9462 1.403 2.0267 1.882 3.248zm-2.039-3.5157.783-.6225c-.894-1.1231-1.946-2.048-3.154-2.7678l-.512.8591-.511.8591c.994.5927 1.864 1.3553 2.612 2.2947zm-2.883-2.5312.504-.8638c-.932-.5438-1.959-.9526-3.074-1.2313l-.242.9701-.243.9701c.948.2369 1.796.5781 2.551 1.0187zm-2.812-1.125.269-.9632c-1.107-.3089-2.3-.4587-3.574-.4587v1 1c1.117 0 2.127.1314 3.036.3851zm-3.305-.4219v-1h-3.305v1 1h3.305zm61.699 20.7422v1h1v-1zm-21.023 0v-1h-1v1zm0 14.4492h-1v1h1zm24.574 0h1v-1h-1zm0 7.9805v1h1v-1zm-34.488 0h-1v1h1zm0-51.1875v-1h-1v1zm34.383 0h1v-1h-1zm0 8.0508v1h1v-1zm-24.469 0v-1h-1v1zm0 12.9023h-1v1h1zm21.023 0h1v-1h-1zm0 7.8047v-1h-21.023v1 1h21.023zm-21.023 0h-1v14.4492h1 1v-14.4492zm0 14.4492v1h24.574v-1-1h-24.574zm24.574 0h-1v7.9805h1 1v-7.9805zm0 7.9805v-1h-34.488v1 1h34.488zm-34.488 0h1v-51.1875h-1-1v51.1875zm0-51.1875v1h34.383v-1-1h-34.383zm34.383 0h-1v8.0508h1 1v-8.0508zm0 8.0508v-1h-24.469v1 1h24.469zm-24.469 0h-1v12.9023h1 1v-12.9023zm0 12.9023v1h21.023v-1-1h-21.023zm21.023 0h-1v7.8047h1 1v-7.8047zm29.11 11.1094.893-.4498-.277-.5502h-.616zm-7.488 0v-1h-1v1zm0 19.125v1h1v-1zm-9.879 0h-1v1h1zm0-51.1875v-1h-1v1zm24.855 1.0195-.284.959.009.0026zm5.906 2.918.624-.782-.006-.0043zm3.727 4.8164-.912.4113.005.0092zm.668 11.6367-.958-.2887-.003.0099zm-1.828 3.9024.819.5734.002-.0034zm-2.953 3.0586-.603-.7981-.008.0061zm-3.797 2.25-.411-.912-.965.4346.489.9393zm11.004 21.1289h1v-.2448l-.113-.2171zm0 .457v1h1v-1zm-10.582 0-.894.4498.278.5502h.616zm-17.121-27.1406h-1v1h1zm11.32-.6328.345.9387.01-.004zm2.847-1.8985-.732-.6804-.008.0086-.008.0088zm1.372-2.3554-.942-.3379-.004.0108-.003.0108zm-.141-6.6446-.936.3534.005.0127.005.0126zm-1.828-2.6015-.643.7662.005.0038zm-13.57-1.8985v-1h-1v1zm7.488 24.0469v-1h-7.488v1 1h7.488zm-7.488 0h-1v19.125h1 1v-19.125zm0 19.125v-1h-9.879v1 1h9.879zm-9.879 0h1v-51.1875h-1-1v51.1875zm0-51.1875v1h17.156v-1-1h-17.156zm17.156 0v1c2.757 0 5.226.3305 7.415.9784l.284-.9589.284-.9589c-2.404-.7114-5.068-1.0606-7.983-1.0606zm7.699 1.0195-.275.9616c2.19.6257 4.038 1.5445 5.563 2.7427l.618-.7863.618-.7863c-1.756-1.3799-3.846-2.4064-6.249-3.0932zm5.906 2.918-.623.782c1.491 1.1881 2.635 2.6656 3.438 4.4457l.912-.4113.911-.4113c-.931-2.0636-2.271-3.7971-4.014-5.1871zm3.727 4.8164-.907.4205c.818 1.7669 1.243 3.8452 1.243 6.2592h1 1c0-2.6486-.466-5.0233-1.429-7.1002zm1.336 6.6797h-1c0 1.7479-.213 3.3008-.626 4.6683l.958.2887.957.2888c.478-1.5857.711-3.3374.711-5.2458zm-.668 4.957-.961-.2788c-.394 1.3577-.959 2.5586-1.689 3.6111l.822.5701.821.57c.864-1.2444 1.518-2.645 1.967-4.1936zm-1.828 3.9024-.82-.5735c-.759 1.0856-1.671 2.0295-2.736 2.834l.603.7981.602.798c1.232-.9299 2.289-2.025 3.17-3.2832zm-2.953 3.0586-.611-.792c-1.058.8156-2.256 1.5265-3.597 2.13l.411.912.41.9119c1.471-.6621 2.805-1.4512 3.997-2.3699zm-3.797 2.25-.887.4619 11.004 21.1289.887-.4619.887-.4619-11.004-21.1289zm11.004 21.1289h-1v.457h1 1v-.457zm0 .457v-1h-10.582v1 1h10.582zm-10.582 0 .893-.4498-9.633-19.125-.893.4498-.893.4498 9.632 19.125zm-17.121-27.1406v1h7.312v-1-1h-7.312zm7.312 0v1c1.613 0 3.07-.2232 4.353-.6942l-.345-.9386-.345-.9387c-1.015.3727-2.229.5715-3.663.5715zm4.008-.6328.355.9347c1.301-.4944 2.393-1.2123 3.241-2.1701l-.749-.6631-.748-.663c-.605.6828-1.412 1.2305-2.454 1.6267zm2.847-1.8985.733.6805c.714-.7687 1.241-1.6807 1.587-2.7197l-.948-.3162-.949-.3163c-.263.7891-.65 1.4474-1.155 1.9913zm1.372-2.3554.941.3378c.372-1.0381.551-2.1742.551-3.3964h-1-1c0 1.0277-.15 1.9307-.434 2.7207zm.492-3.0586h1c0-1.4615-.227-2.7899-.708-3.9646l-.925.3786-.926.3787c.364.8877.559 1.9499.559 3.2073zm-.633-3.586.935-.3534c-.456-1.2072-1.163-2.2213-2.125-3.0182l-.638.7701-.638.77c.679.5625 1.19 1.2828 1.53 2.1849zm-1.828-2.6015.642-.7662c-.843-.7074-1.856-1.2339-3.017-1.5949l-.297.9548-.297.9549c.949.2951 1.716.7062 2.326 1.2176zm-2.672-1.4063.297-.9548c-1.17-.3641-2.48-.5374-3.918-.5374v1 1c1.281 0 2.385.1548 3.324.4471zm-3.621-.4922v-1h-7.277v1 1h7.277zm-7.277 0h-1v16.0313h1 1v-16.0313z" fill="#000" mask="url(#a)"/><path d="m273.973 115.875h-7.489v19.125h-9.879v-51.1875h17.157c2.836 0 5.402.3398 7.699 1.0195 2.297.6563 4.266 1.6289 5.906 2.918 1.617 1.2891 2.86 2.8945 3.727 4.8164.89 1.9219 1.336 4.1484 1.336 6.6797 0 1.8279-.223 3.4809-.668 4.9569-.422 1.453-1.032 2.754-1.828 3.902-.821 1.172-1.805 2.192-2.954 3.059-1.125.867-2.39 1.617-3.796 2.25l11.004 21.129v.457h-10.583zm-7.489-8.016h7.313c1.523 0 2.859-.211 4.008-.632 1.172-.446 2.121-1.079 2.847-1.899.61-.656 1.067-1.441 1.371-2.355.329-.914.493-1.934.493-3.0589 0-1.3594-.211-2.5547-.633-3.586-.399-1.0547-1.008-1.9219-1.828-2.6015-.727-.6094-1.617-1.0782-2.672-1.4063s-2.262-.4922-3.621-.4922h-7.278zm64.864 4.711h-21.024v14.45h24.574v7.98h-34.488v-51.1875h34.383v8.0508h-24.469v12.9027h21.024zm47.285 6.399c-.164 2.578-.727 4.898-1.688 6.961-.937 2.062-2.203 3.82-3.797 5.273-1.593 1.453-3.492 2.578-5.695 3.375-2.203.774-4.641 1.16-7.312 1.16-2.11 0-4.067-.269-5.871-.808-1.782-.563-3.387-1.36-4.817-2.391-1.312-.961-2.484-2.121-3.515-3.48-1.008-1.36-1.864-2.86-2.567-4.5-.68-1.641-1.207-3.446-1.582-5.414-.351-1.969-.527-4.055-.527-6.258v-6.891c0-2.062.164-4.019.492-5.871.328-1.875.82-3.6094 1.476-5.2031.75-1.9453 1.735-3.6797 2.954-5.2031 1.218-1.5235 2.601-2.8126 4.148-3.8672 1.383-.8907 2.895-1.5704 4.535-2.0391 1.664-.4922 3.445-.7383 5.344-.7383 2.812 0 5.309.3985 7.488 1.1953 2.203.7969 4.078 1.9336 5.625 3.4102 1.547 1.4765 2.766 3.2812 3.656 5.4141.891 2.1328 1.454 4.5351 1.688 7.2072h-9.844c-.094-1.5237-.328-2.8596-.703-4.008-.351-1.1485-.867-2.1094-1.547-2.8828-.703-.75-1.582-1.3125-2.636-1.6875-1.032-.3985-2.274-.5977-3.727-.5977-.773 0-1.5.082-2.18.2461-.656.1641-1.265.4101-1.828.7383-.961.5625-1.781 1.3711-2.461 2.4258-.656 1.0312-1.183 2.2382-1.582 3.621-.305 1.0782-.527 2.2738-.668 3.5858-.14 1.289-.211 2.684-.211 4.184v6.961c0 2.039.106 3.867.317 5.484.234 1.594.586 2.988 1.054 4.184.328.82.715 1.547 1.16 2.179.469.633.997 1.161 1.583 1.582.632.469 1.335.821 2.109 1.055.797.211 1.676.317 2.637.317 1.289 0 2.449-.165 3.48-.493s1.91-.843 2.637-1.547c.726-.703 1.301-1.605 1.722-2.707.422-1.101.68-2.425.774-3.972zm43.418-5.801c0 2.203-.199 4.301-.598 6.293-.398 1.969-.973 3.797-1.723 5.484-.796 1.688-1.781 3.235-2.953 4.641s-2.507 2.578-4.007 3.516c-1.36.82-2.86 1.453-4.5 1.898-1.618.469-3.364.703-5.239.703-1.992 0-3.832-.258-5.519-.773-1.688-.516-3.223-1.242-4.606-2.18-1.359-.984-2.578-2.168-3.656-3.551-1.078-1.406-1.98-2.988-2.707-4.746-.656-1.617-1.16-3.375-1.512-5.273-.328-1.899-.492-3.903-.492-6.012v-7.453c0-2.25.188-4.383.563-6.3986.398-2.0156.972-3.8789 1.722-5.5898.727-1.6172 1.606-3.0821 2.637-4.3946 1.055-1.3125 2.262-2.4375 3.621-3.375 1.336-.914 2.836-1.6172 4.5-2.1093 1.664-.4922 3.469-.7383 5.414-.7383 1.969 0 3.809.2578 5.52.7734 1.734.4922 3.293 1.207 4.675 2.1445 1.383.8907 2.59 1.9688 3.621 3.2344 1.055 1.2656 1.958 2.6602 2.708 4.1836.82 1.7344 1.441 3.6328 1.863 5.6953.445 2.0624.668 4.2544.668 6.5744zm-10.02-7.523c0-1.313-.07-2.555-.211-3.727-.117-1.195-.316-2.2969-.597-3.3047-.352-1.2656-.821-2.3906-1.407-3.375-.586-1.0078-1.277-1.8281-2.074-2.461-.633-.4687-1.347-.832-2.144-1.0898-.774-.2578-1.641-.3867-2.602-.3867-.914 0-1.746.1172-2.496.3515-.727.2344-1.383.5743-1.969 1.0196-.797.6562-1.476 1.4765-2.039 2.4609-.539.9844-.961 2.1328-1.265 3.4453-.235 1.0078-.411 2.1099-.528 3.3049-.094 1.195-.14 2.449-.14 3.762v7.523c0 1.242.046 2.437.14 3.586.094 1.148.258 2.215.492 3.199.258 1.242.633 2.379 1.125 3.41.516 1.008 1.114 1.828 1.793 2.461.633.563 1.348.996 2.145 1.301.82.305 1.746.457 2.777.457.985 0 1.887-.141 2.707-.422.821-.281 1.547-.691 2.18-1.23.797-.657 1.465-1.477 2.004-2.461.562-1.008 1.008-2.145 1.336-3.41.258-.985.445-2.063.562-3.235.141-1.172.211-2.39.211-3.656zm29.496 29.355-15.468-51.1875h10.898l8.684 33.4335.879 3.445.949-3.48 8.719-33.3985h10.898l-15.504 51.1875zm62.789-22.43h-21.023v14.45h24.574v7.98h-34.488v-51.1875h34.383v8.0508h-24.469v12.9027h21.023zm29.11 3.305h-7.488v19.125h-9.879v-51.1875h17.156c2.836 0 5.402.3398 7.699 1.0195 2.297.6563 4.266 1.6289 5.906 2.918 1.618 1.2891 2.86 2.8945 3.727 4.8164.891 1.9219 1.336 4.1484 1.336 6.6797 0 1.8279-.223 3.4809-.668 4.9569-.422 1.453-1.031 2.754-1.828 3.902-.821 1.172-1.805 2.192-2.953 3.059-1.125.867-2.391 1.617-3.797 2.25l11.004 21.129v.457h-10.582zm-7.488-8.016h7.312c1.523 0 2.859-.211 4.008-.632 1.172-.446 2.121-1.079 2.847-1.899.61-.656 1.067-1.441 1.372-2.355.328-.914.492-1.934.492-3.0589 0-1.3594-.211-2.5547-.633-3.586-.398-1.0547-1.008-1.9219-1.828-2.6015-.727-.6094-1.617-1.0782-2.672-1.4063s-2.262-.4922-3.621-.4922h-7.277zm50.835-.457 10.09-23.5895h10.864l-16.102 33.4685-.035 17.719h-9.844l-.035-18.141-15.856-33.0465h10.829z" fill="#1e1b4b"/><path d="m273.973 115.875.893-.45-.277-.55h-.616zm-7.489 0v-1h-1v1zm0 19.125v1h1v-1zm-9.879 0h-1v1h1zm0-51.1875v-1h-1v1zm24.856 1.0195-.284.959.009.0026zm5.906 2.918.624-.782-.006-.0043zm3.727 4.8164-.912.4113.004.0092zm.668 11.6366-.958-.289-.003.01zm-1.828 3.902.819.574.002-.003zm-2.954 3.059-.602-.798-.008.006zm-3.796 2.25-.411-.912-.965.435.489.939zm11.004 21.129h1v-.245l-.114-.217zm0 .457v1h1v-1zm-10.583 0-.893.45.277.55h.616zm-17.121-27.141h-1v1h1zm11.321-.632.345.938.01-.004zm2.847-1.899-.732-.68-.008.008-.008.009zm1.371-2.355-.941-.338-.004.011-.003.01zm-.14-6.6449-.936.3534.005.0127.005.0126zm-1.828-2.6015-.643.7662.005.0038zm-13.571-1.8985v-1h-1v1zm7.489 24.0469v-1h-7.489v1 1h7.489zm-7.489 0h-1v19.125h1 1v-19.125zm0 19.125v-1h-9.879v1 1h9.879zm-9.879 0h1v-51.1875h-1-1v51.1875zm0-51.1875v1h17.157v-1-1h-17.157zm17.157 0v1c2.757 0 5.226.3305 7.415.9784l.284-.9589.284-.9589c-2.404-.7114-5.068-1.0606-7.983-1.0606zm7.699 1.0195-.275.9616c2.19.6257 4.038 1.5445 5.563 2.7427l.618-.7863.618-.7863c-1.756-1.3799-3.846-2.4064-6.249-3.0932zm5.906 2.918-.623.782c1.49 1.1881 2.635 2.6656 3.438 4.4457l.912-.4113.911-.4113c-.931-2.0636-2.271-3.7971-4.014-5.1871zm3.727 4.8164-.908.4205c.819 1.7669 1.244 3.8452 1.244 6.2592h1 1c0-2.6486-.467-5.0233-1.429-7.1002zm1.336 6.6797h-1c0 1.7479-.213 3.3009-.626 4.6679l.958.289.957.289c.478-1.586.711-3.338.711-5.2459zm-.668 4.9569-.961-.279c-.394 1.358-.959 2.559-1.689 3.611l.822.57.821.571c.864-1.245 1.517-2.646 1.967-4.194zm-1.828 3.902-.82-.573c-.76 1.086-1.671 2.03-2.736 2.834l.602.798.603.798c1.232-.93 2.289-2.025 3.17-3.283zm-2.954 3.059-.61-.792c-1.058.816-2.256 1.527-3.597 2.13l.411.912.41.912c1.471-.662 2.805-1.451 3.997-2.37zm-3.796 2.25-.887.462 11.004 21.129.887-.462.886-.462-11.003-21.129zm11.004 21.129h-1v.457h1 1v-.457zm0 .457v-1h-10.583v1 1h10.583zm-10.583 0 .894-.45-9.633-19.125-.893.45-.893.45 9.632 19.125zm-17.121-27.141v1h7.313v-1-1h-7.313zm7.313 0v1c1.613 0 3.07-.223 4.353-.694l-.345-.938-.345-.939c-1.015.373-2.23.571-3.663.571zm4.008-.632.355.934c1.301-.494 2.393-1.212 3.241-2.17l-.749-.663-.748-.663c-.605.683-1.412 1.231-2.455 1.627zm2.847-1.899.733.681c.714-.769 1.241-1.681 1.587-2.72l-.949-.316-.948-.317c-.263.789-.65 1.448-1.155 1.992zm1.371-2.355.942.338c.372-1.039.551-2.175.551-3.3969h-1-1c0 1.0279-.15 1.9309-.434 2.7209zm.493-3.0589h1c0-1.4615-.227-2.7899-.708-3.9646l-.925.3786-.926.3787c.363.8877.559 1.9499.559 3.2073zm-.633-3.586.935-.3534c-.456-1.2072-1.164-2.2213-2.125-3.0182l-.638.7701-.638.77c.679.5625 1.19 1.2828 1.53 2.1849zm-1.828-2.6015.642-.7662c-.843-.7074-1.856-1.2339-3.017-1.5949l-.297.9548-.297.9549c.948.2951 1.716.7062 2.326 1.2176zm-2.672-1.4063.297-.9548c-1.17-.3641-2.48-.5374-3.918-.5374v1 1c1.281 0 2.384.1548 3.324.4471zm-3.621-.4922v-1h-7.278v1 1h7.278zm-7.278 0h-1v16.0309h1 1v-16.0309zm64.864 20.7419v1h1v-1zm-21.024 0v-1h-1v1zm0 14.45h-1v1h1zm24.574 0h1v-1h-1zm0 7.98v1h1v-1zm-34.488 0h-1v1h1zm0-51.1875v-1h-1v1zm34.383 0h1v-1h-1zm0 8.0508v1h1v-1zm-24.469 0v-1h-1v1zm0 12.9027h-1v1h1zm21.024 0h1v-1h-1zm0 7.804v-1h-21.024v1 1h21.024zm-21.024 0h-1v14.45h1 1v-14.45zm0 14.45v1h24.574v-1-1h-24.574zm24.574 0h-1v7.98h1 1v-7.98zm0 7.98v-1h-34.488v1 1h34.488zm-34.488 0h1v-51.1875h-1-1v51.1875zm0-51.1875v1h34.383v-1-1h-34.383zm34.383 0h-1v8.0508h1 1v-8.0508zm0 8.0508v-1h-24.469v1 1h24.469zm-24.469 0h-1v12.9027h1 1v-12.9027zm0 12.9027v1h21.024v-1-1h-21.024zm21.024 0h-1v7.804h1 1v-7.804zm47.285 14.203.998.063.067-1.063h-1.065zm-1.688 6.961-.906-.423-.004.009zm-9.492 8.648.331.944.009-.003zm-13.183.352-.302.953.008.003.007.002zm-4.817-2.391-.591.807.006.004zm-3.515-3.48-.804.595.007.009zm-2.567-4.5-.924.382.005.012zm-1.582-5.414-.984.175.002.012zm-.035-19.02.985.174v-.002zm1.476-5.2031.925.3807.004-.0104.005-.0106zm7.102-9.0703-.541-.8408-.011.0071-.011.0074zm4.535-2.0391.275.9616.009-.0027zm12.832.457-.343.9392.003.0012zm10.969 16.0315v1h1.092l-.096-1.088zm-9.844 0-.998.061.058.939h.94zm-.703-4.008-.956.2927.003.0089.002.0088zm-1.547-2.8828.751-.6602-.01-.012-.011-.0118zm-2.636-1.6875-.361.9328.013.0048.012.0046zm-5.907-.3516-.234-.9721-.008.002zm-1.828.7383-.504-.8638-.001.0008zm-2.461 2.4258-.84-.5418-.003.0049zm-1.582 3.621-.961-.2768-.001.0049zm-.668 3.5858.994.109v-.002zm.106 16.629-.992.129.001.009.001.008zm1.054 4.184-.931.365.003.006zm1.16 2.179-.817.576.007.01.007.01zm1.583 1.582.595-.803-.011-.008zm2.109 1.055-.29.957.017.005.017.005zm11.25-8.402v-1h-.941l-.057.939zm9.879 0-.998-.064c-.157 2.471-.694 4.667-1.596 6.602l.906.423.907.422c1.02-2.19 1.608-4.634 1.779-7.32zm-1.688 6.961-.91-.414c-.884 1.945-2.072 3.591-3.56 4.948l.673.739.674.739c1.699-1.549 3.043-3.419 4.034-5.599zm-3.797 5.273-.673-.739c-1.489 1.358-3.272 2.418-5.362 3.174l.34.94.34.941c2.316-.838 4.33-2.028 6.029-3.577zm-5.695 3.375-.331-.943c-2.083.731-4.406 1.103-6.981 1.103v1 1c2.768 0 5.32-.401 7.643-1.216zm-7.312 1.16v-1c-2.024 0-3.884-.258-5.585-.766l-.286.958-.287.958c1.908.57 3.963.85 6.158.85zm-5.871-.808.301-.954c-1.686-.532-3.195-1.283-4.533-2.248l-.585.811-.585.811c1.521 1.097 3.224 1.941 5.1 2.533zm-4.817-2.391.591-.807c-1.231-.901-2.334-1.992-3.31-3.278l-.796.605-.797.604c1.087 1.433 2.327 2.662 3.721 3.683zm-3.515-3.48.803-.596c-.959-1.294-1.777-2.725-2.451-4.298l-.919.394-.919.394c.732 1.708 1.626 3.276 2.682 4.701zm-2.567-4.5.924-.383c-.651-1.57-1.16-3.308-1.524-5.219l-.982.188-.982.187c.386 2.027.931 3.898 1.64 5.609zm-1.582-5.414.984-.176c-.34-1.905-.511-3.932-.511-6.082h-1-1c0 2.256.18 4.401.543 6.433zm-.527-6.258h1v-6.891h-1-1v6.891zm0-6.891h1c0-2.009.16-3.908.477-5.697l-.985-.174-.985-.1745c-.339 1.9145-.507 3.9305-.507 6.0455zm.492-5.871.985.172c.317-1.8105.79-3.4742 1.416-4.9944l-.925-.3807-.924-.3808c-.687 1.6674-1.198 3.4724-1.537 5.4115zm1.476-5.2031.934.3597c.715-1.8563 1.65-3.5 2.8-4.9382l-.78-.6246-.781-.6247c-1.287 1.6087-2.321 3.4337-3.106 5.468zm2.954-5.2031.78.6246c1.16-1.4491 2.47-2.6692 3.931-3.6656l-.563-.8262-.563-.8263c-1.633 1.113-3.088 2.471-4.366 4.0688zm4.148-3.8672.542.8407c1.297-.8355 2.718-1.4755 4.268-1.9183l-.275-.9615-.275-.9615c-1.731.4947-3.333 1.2141-4.801 2.1598zm4.535-2.0391.284.9589c1.564-.4625 3.249-.6972 5.06-.6972v-1-1c-1.986 0-3.863.2575-5.627.7794zm5.344-.7383v1c2.719 0 5.096.3854 7.145 1.1345l.343-.9392.344-.9392c-2.311-.8446-4.926-1.2561-7.832-1.2561zm7.488 1.1953-.34.9404c2.085.7542 3.838 1.8213 5.275 3.1931l.69-.7233.691-.7234c-1.657-1.5812-3.655-2.7876-5.976-3.6271zm5.625 3.4102-.69.7233c1.439 1.3737 2.582 3.0604 3.424 5.0761l.922-.3853.923-.3854c-.939-2.2499-2.234-4.1726-3.888-5.7521zm3.656 5.4141-.922.3853c.845 2.024 1.387 4.3236 1.614 6.9089l.996-.087.996-.088c-.242-2.7579-.825-5.263-1.761-7.5046zm1.688 7.2072v-1.0002h-9.844v1.0002 1h9.844zm-9.844 0 .998-.062c-.097-1.5866-.343-3.0095-.75-4.2564l-.951.3104-.951.3104c.343 1.0499.566 2.2989.656 3.7586zm-.703-4.008.956-.2927c-.386-1.2617-.964-2.354-1.752-3.2503l-.751.6602-.751.6601c.572.6506 1.025 1.4802 1.342 2.5154zm-1.547-2.8828.73-.684c-.822-.8764-1.84-1.5222-3.031-1.9458l-.335.9423-.336.9422c.919.3264 1.658.8056 2.243 1.4292zm-2.636-1.6875.36-.9328c-1.176-.4544-2.547-.6649-4.087-.6649v1 1c1.366 0 2.48.188 3.366.5305zm-3.727-.5977v-1c-.844 0-1.65.0896-2.414.274l.234.9721.235.9721c.595-.1437 1.242-.2182 1.945-.2182zm-2.18.2461-.242-.9701c-.745.186-1.442.467-2.09.8446l.504.8638.504.8638c.478-.2787.999-.4899 1.567-.632zm-1.828.7383-.505-.863c-1.113.6513-2.043 1.5773-2.796 2.7471l.84.5417.841.5417c.605-.9397 1.316-1.6309 2.125-2.1045zm-2.461 2.4258-.843-.5369c-.716 1.1246-1.279 2.4222-1.7 3.8811l.961.2768.961.2769c.377-1.3068.868-2.4232 1.465-3.3611zm-1.582 3.621-.962-.2719c-.323 1.1408-.555 2.3927-.7 3.7517l.994.106.994.107c.136-1.266.349-2.4054.636-3.4208zm-.668 3.5858-.994-.108c-.145 1.33-.217 2.761-.217 4.292h1 1c0-1.469.069-2.827.205-4.075zm-.211 4.184h-1v6.961h1 1v-6.961zm0 6.961h-1c0 2.072.107 3.944.325 5.613l.992-.129.991-.129c-.204-1.566-.308-3.349-.308-5.355zm.317 5.484-.99.146c.243 1.65.611 3.121 1.113 4.403l.931-.365.931-.365c-.435-1.11-.77-2.428-.996-3.964zm1.054 4.184-.928.371c.353.883.775 1.679 1.271 2.384l.817-.576.818-.575c-.395-.561-.746-1.218-1.049-1.976zm1.16 2.179-.803.596c.525.708 1.124 1.311 1.801 1.798l.585-.812.584-.811c-.495-.356-.95-.809-1.363-1.366zm1.583 1.582-.596.804c.728.539 1.535.941 2.415 1.208l.29-.957.29-.957c-.667-.202-1.266-.502-1.804-.901zm2.109 1.055-.256.967c.893.236 1.859.35 2.893.35v-1-1c-.889 0-1.68-.098-2.381-.284zm2.637.317v1c1.373 0 2.637-.175 3.783-.54l-.303-.953-.303-.953c-.917.292-1.972.446-3.177.446zm3.48-.493.303.953c1.168-.371 2.184-.963 3.029-1.781l-.695-.719-.696-.718c-.608.588-1.349 1.028-2.244 1.312zm2.637-1.547.695.719c.848-.82 1.496-1.853 1.961-3.068l-.934-.358-.933-.357c-.379.988-.879 1.76-1.485 2.346zm1.722-2.707.934.358c.468-1.221.74-2.651.838-4.27l-.998-.06-.998-.061c-.09 1.475-.333 2.694-.709 3.676zm.774-3.972v1h9.879v-1-1h-9.879zm52.699.492.98.198.001-.002zm-1.723 5.484.905.427.005-.01.004-.011zm-6.96 8.157.516.856.007-.004.007-.004zm-4.5 1.898-.262-.965-.009.002-.008.003zm-15.364-2.25-.586.81.012.009.013.009zm-3.656-3.551-.794.609.005.006zm-2.707-4.746-.927.376.003.006zm-1.512-5.273-.985.17.002.012zm.071-19.8636-.982-.1939-.002.011zm1.722-5.5898-.912-.4099-.004.0084zm2.637-4.3946-.78-.6264-.006.0086zm3.621-3.375-.565-.8253-.003.0021zm15.434-2.0742-.289.9575.008.0023.008.0022zm4.675 2.1445-.561.8278.01.0066.01.0064zm3.621 3.2344-.775.6317.007.0085zm2.708 4.1836.904-.4276-.004-.007-.003-.0071zm1.863 5.6953-.98.2004.002.0107zm-9.563 2.7774-.995.098.001.01.001.011zm-.597-3.3047-.964.2676v.0012zm-1.407-3.375-.864.5026.005.0089zm-2.074-2.461.622-.7831-.013-.0104-.014-.01zm-2.144-1.0898-.317.9487.009.0027zm-5.098-.0352-.298-.9545-.009.0028zm-1.969 1.0196-.605-.7962-.015.0118-.015.0124zm-2.039 2.4609-.868-.4961-.005.0078-.004.008zm-1.265 3.4453.974.2265v-.0003zm-.528 3.3049-.995-.098-.001.01-.001.01zm.492 18.07.98-.203-.003-.014-.004-.014zm1.125 3.41-.902.431.006.012.006.013zm1.793 2.461-.681.732.008.008.009.008zm2.145 1.301-.357.934.009.003zm7.664-1.195-.636-.772-.006.005-.006.005zm2.004-2.461-.873-.488-.004.007zm1.336-3.41-.968-.254v.003zm.562-3.235-.993-.119-.001.01-.001.01zm10.231-3.656h-1c0 2.143-.194 4.174-.578 6.097l.98.196.981.196c.412-2.062.617-4.226.617-6.489zm-.598 6.293-.98-.198c-.385 1.903-.938 3.661-1.656 5.276l.913.406.914.406c.782-1.759 1.378-3.658 1.789-5.692zm-1.723 5.484-.904-.427c-.761 1.613-1.7 3.088-2.817 4.428l.768.64.769.64c1.227-1.472 2.256-3.091 3.089-4.854zm-2.953 4.641-.768-.64c-1.106 1.327-2.363 2.428-3.769 3.308l.53.848.53.848c1.593-.996 3.008-2.239 4.246-3.724zm-4.007 3.516-.517-.857c-1.275.769-2.688 1.367-4.245 1.79l.262.965.261.965c1.724-.468 3.311-1.136 4.755-2.007zm-4.5 1.898-.279-.96c-1.517.439-3.168.663-4.96.663v1 1c1.959 0 3.8-.245 5.517-.743zm-5.239.703v-1c-1.905 0-3.646-.246-5.227-.73l-.292.957-.293.956c1.794.548 3.734.817 5.812.817zm-5.519-.773.292-.957c-1.597-.488-3.041-1.172-4.337-2.051l-.561.828-.561.828c1.47.996 3.097 1.765 4.874 2.308zm-4.606-2.18.587-.81c-1.28-.927-2.432-2.044-3.454-3.356l-.789.615-.789.615c1.134 1.454 2.42 2.704 3.859 3.746zm-3.656-3.551.794-.608c-1.022-1.332-1.881-2.837-2.577-4.52l-.924.382-.924.382c.757 1.833 1.702 3.492 2.837 4.973zm-2.707-4.746.927-.376c-.629-1.548-1.115-3.24-1.455-5.079l-.984.182-.983.182c.363 1.958.884 3.781 1.568 5.467zm-1.512-5.273.986-.171c-.318-1.837-.478-3.783-.478-5.841h-1-1c0 2.161.168 4.222.507 6.182zm-.492-6.012h1v-7.453h-1-1v7.453zm0-7.453h1c0-2.195.183-4.266.546-6.2157l-.983-.1829-.984-.1829c-.387 2.0815-.579 4.2755-.579 6.5815zm.563-6.3986.981.1939c.385-1.9513.939-3.7442 1.657-5.3823l-.916-.4014-.916-.4015c-.782 1.7838-1.376 3.7174-1.787 5.7974zm1.722-5.5898.912.4098c.696-1.5476 1.533-2.9418 2.511-4.1865l-.786-.6179-.786-.6178c-1.085 1.3803-2.005 2.9158-2.763 4.6025zm2.637-4.3946.779.6264c.996-1.2385 2.132-2.2967 3.41-3.1782l-.568-.8232-.568-.8232c-1.44.9936-2.718 2.1853-3.833 3.5718zm3.621-3.375.565.8253c1.244-.851 2.647-1.511 4.219-1.9757l-.284-.9589-.284-.959c-1.757.5197-3.353 1.2659-4.781 2.243zm4.5-2.1093.284.9589c1.561-.4619 3.269-.6972 5.13-.6972v-1-1c-2.03 0-3.931.2568-5.698.7793zm5.414-.7383v1c1.881 0 3.623.2462 5.231.7309l.289-.9575.288-.9575c-1.813-.5465-3.751-.8159-5.808-.8159zm5.52.7734-.273.962c1.64.4654 3.099 1.1372 4.387 2.0103l.561-.8278.562-.8277c-1.478-1.0019-3.136-1.7598-4.964-2.2788zm4.675 2.1445-.541.8408c1.295.8341 2.423 1.8418 3.387 3.0253l.775-.6317.776-.6317c-1.098-1.3477-2.385-2.4962-3.855-3.4434zm3.621 3.2344-.768.6402c1.003 1.203 1.862 2.5305 2.578 3.9851l.898-.4417.897-.4417c-.784-1.5923-1.729-3.0538-2.836-4.3821zm2.708 4.1836-.904.4276c.782 1.6553 1.38 3.4766 1.787 5.4681l.98-.2004.98-.2004c-.437-2.1334-1.082-4.109-1.939-5.9225zm1.863 5.6953-.978.2111c.429 1.9863.646 4.1073.646 6.3633h1 1c0-2.384-.229-4.647-.691-6.7854zm.668 6.5744h-1v7.453h1 1v-7.453zm-10.02-.07h1c0-1.348-.072-2.631-.218-3.846l-.993.119-.993.119c.136 1.128.204 2.331.204 3.608zm-.211-3.727.996-.098c-.123-1.245-.331-2.4042-.63-3.4755l-.963.2688-.964.2688c.264.9443.454 1.9879.566 3.1339zm-.597-3.3047.963-.2677c-.372-1.3389-.873-2.5479-1.51-3.6188l-.86.5115-.859.5115c.535.8978.971 1.9388 1.302 3.1311zm-1.407-3.375.865-.5026c-.64-1.1001-1.409-2.0207-2.317-2.7415l-.622.7831-.622.7832c.686.5448 1.3 1.2649 1.832 2.1804zm-2.074-2.461.595-.8035c-.725-.5373-1.538-.9487-2.432-1.2377l-.307.9514-.308.9514c.7.2266 1.317.5418 1.857.942zm-2.144-1.0898.316-.9487c-.892-.2972-1.868-.438-2.918-.438v1 1c.872 0 1.63.117 2.285.3354zm-2.602-.3867v-1c-.999 0-1.933.1281-2.794.3971l.298.9544.298.9545c.639-.1997 1.369-.306 2.198-.306zm-2.496.3515-.307-.9517c-.83.2678-1.588.659-2.267 1.1751l.605.7962.605.7961c.493-.3744 1.048-.6629 1.671-.8639zm-1.969 1.0196-.635-.772c-.9.7406-1.655 1.6575-2.272 2.7368l.868.4961.868.4962c.509-.8895 1.112-1.6132 1.807-2.1852zm-2.039 2.4609-.877-.4803c-.59 1.0784-1.041 2.3154-1.363 3.6995l.975.2261.974.2262c.288-1.2409.681-2.3008 1.168-3.1912zm-1.265 3.4453-.974-.2265c-.246 1.0564-.428 2.2014-.549 3.4334l.995.098.995.097c.114-1.158.283-2.2161.507-3.1754zm-.528 3.3049-.997-.078c-.096 1.223-.143 2.503-.143 3.84h1 1c0-1.289.046-2.517.137-3.684zm-.14 3.762h-1v7.523h1 1v-7.523zm0 7.523h-1c0 1.267.047 2.49.144 3.667l.996-.081.997-.081c-.091-1.12-.137-2.288-.137-3.505zm.14 3.586-.996.081c.097 1.193.268 2.31.516 3.35l.972-.232.973-.231c-.221-.929-.378-1.945-.468-3.049zm.492 3.199-.979.203c.273 1.313.672 2.527 1.202 3.638l.902-.431.903-.43c-.454-.952-.805-2.011-1.048-3.183zm1.125 3.41-.89.456c.558 1.089 1.221 2.01 2.002 2.737l.681-.732.682-.732c-.578-.538-1.11-1.258-1.584-2.184zm1.793 2.461-.664.748c.724.643 1.543 1.14 2.452 1.487l.357-.934.357-.934c-.685-.262-1.295-.633-1.837-1.114zm2.145 1.301-.348.937c.949.353 1.996.52 3.125.52v-1-1c-.933 0-1.738-.138-2.429-.394zm2.777.457v1c1.08 0 2.094-.154 3.032-.476l-.325-.946-.324-.946c-.703.241-1.494.368-2.383.368zm2.707-.422.325.946c.933-.32 1.771-.791 2.503-1.415l-.648-.761-.648-.762c-.534.455-1.149.804-1.856 1.046zm2.18-1.23.636.772c.903-.744 1.65-1.667 2.245-2.753l-.877-.48-.877-.481c-.483.883-1.072 1.601-1.763 2.17zm2.004-2.461.873.487c.609-1.091 1.084-2.309 1.431-3.646l-.968-.251-.968-.251c-.31 1.193-.725 2.249-1.241 3.173zm1.336-3.41.967.253c.273-1.042.469-2.172.59-3.388l-.995-.1-.995-.099c-.113 1.128-.292 2.153-.535 3.08zm.562-3.235.993.119c.146-1.214.218-2.472.218-3.775h-1-1c0 1.229-.068 2.407-.204 3.537zm.211-3.656h1v-7.523h-1-1v7.523zm29.496 21.832-.957.289.215.711h.742zm-15.468-51.1875v-1h-1.347l.389 1.2893zm10.898 0 .968-.2514-.195-.7486h-.773zm8.684 33.4335.969-.247-.001-.004zm.879 3.445-.969.248.936 3.671.997-3.655zm.949-3.48.965.263.002-.01zm8.719-33.3985v-1h-.773l-.195.7474zm10.898 0 .957.2899.391-1.2899h-1.348zm-15.504 51.1875v1h.742l.215-.71zm-10.055 0 .958-.289-15.469-51.1878-.957.2893-.958.2893 15.469 51.1872zm-15.468-51.1875v1h10.898v-1-1h-10.898zm10.898 0-.968.2514 8.684 33.4331.968-.251.968-.251-8.684-33.4339zm8.684 33.4335-.969.247.879 3.446.969-.248.968-.247-.878-3.445zm.879 3.445.964.264.95-3.481-.965-.263-.965-.263-.949 3.48zm.949-3.48.967.253 8.719-33.3989-.967-.2526-.968-.2526-8.719 33.3981zm8.719-33.3985v1h10.898v-1-1h-10.898zm10.898 0-.957-.2899-15.504 51.1874.957.29.957.29 15.504-51.1876zm-15.504 51.1875v-1h-10.055v1 1h10.055zm52.734-22.43v1h1v-1zm-21.023 0v-1h-1v1zm0 14.45h-1v1h1zm24.574 0h1v-1h-1zm0 7.98v1h1v-1zm-34.488 0h-1v1h1zm0-51.1875v-1h-1v1zm34.383 0h1v-1h-1zm0 8.0508v1h1v-1zm-24.469 0v-1h-1v1zm0 12.9027h-1v1h1zm21.023 0h1v-1h-1zm0 7.804v-1h-21.023v1 1h21.023zm-21.023 0h-1v14.45h1 1v-14.45zm0 14.45v1h24.574v-1-1h-24.574zm24.574 0h-1v7.98h1 1v-7.98zm0 7.98v-1h-34.488v1 1h34.488zm-34.488 0h1v-51.1875h-1-1v51.1875zm0-51.1875v1h34.383v-1-1h-34.383zm34.383 0h-1v8.0508h1 1v-8.0508zm0 8.0508v-1h-24.469v1 1h24.469zm-24.469 0h-1v12.9027h1 1v-12.9027zm0 12.9027v1h21.023v-1-1h-21.023zm21.023 0h-1v7.804h1 1v-7.804zm29.11 11.109.893-.45-.277-.55h-.616zm-7.488 0v-1h-1v1zm0 19.125v1h1v-1zm-9.879 0h-1v1h1zm0-51.1875v-1h-1v1zm24.855 1.0195-.284.959.009.0026zm5.906 2.918.624-.782-.006-.0043zm3.727 4.8164-.912.4113.005.0092zm.668 11.6366-.958-.289-.003.01zm-1.828 3.902.819.574.002-.003zm-2.953 3.059-.603-.798-.008.006zm-3.797 2.25-.411-.912-.965.435.489.939zm11.004 21.129h1v-.245l-.113-.217zm0 .457v1h1v-1zm-10.582 0-.894.45.278.55h.616zm-17.121-27.141h-1v1h1zm11.32-.632.345.938.01-.004zm2.847-1.899-.732-.68-.008.008-.008.009zm1.372-2.355-.942-.338-.004.011-.003.01zm-.141-6.6449-.936.3534.005.0127.005.0126zm-1.828-2.6015-.643.7662.005.0038zm-13.57-1.8985v-1h-1v1zm7.488 24.0469v-1h-7.488v1 1h7.488zm-7.488 0h-1v19.125h1 1v-19.125zm0 19.125v-1h-9.879v1 1h9.879zm-9.879 0h1v-51.1875h-1-1v51.1875zm0-51.1875v1h17.156v-1-1h-17.156zm17.156 0v1c2.757 0 5.226.3305 7.415.9784l.284-.9589.284-.9589c-2.404-.7114-5.068-1.0606-7.983-1.0606zm7.699 1.0195-.275.9616c2.19.6257 4.038 1.5445 5.563 2.7427l.618-.7863.618-.7863c-1.756-1.3799-3.846-2.4064-6.249-3.0932zm5.906 2.918-.623.782c1.491 1.1881 2.635 2.6656 3.438 4.4457l.912-.4113.911-.4113c-.931-2.0636-2.271-3.7971-4.014-5.1871zm3.727 4.8164-.907.4205c.818 1.7669 1.243 3.8452 1.243 6.2592h1 1c0-2.6486-.466-5.0233-1.429-7.1002zm1.336 6.6797h-1c0 1.7479-.213 3.3009-.626 4.6679l.958.289.957.289c.478-1.586.711-3.338.711-5.2459zm-.668 4.9569-.961-.279c-.394 1.358-.959 2.559-1.689 3.611l.822.57.821.571c.864-1.245 1.518-2.646 1.967-4.194zm-1.828 3.902-.82-.573c-.759 1.086-1.671 2.03-2.736 2.834l.603.798.602.798c1.232-.93 2.289-2.025 3.17-3.283zm-2.953 3.059-.611-.792c-1.058.816-2.256 1.527-3.597 2.13l.411.912.41.912c1.471-.662 2.805-1.451 3.997-2.37zm-3.797 2.25-.887.462 11.004 21.129.887-.462.887-.462-11.004-21.129zm11.004 21.129h-1v.457h1 1v-.457zm0 .457v-1h-10.582v1 1h10.582zm-10.582 0 .893-.45-9.633-19.125-.893.45-.893.45 9.632 19.125zm-17.121-27.141v1h7.312v-1-1h-7.312zm7.312 0v1c1.613 0 3.07-.223 4.353-.694l-.345-.938-.345-.939c-1.015.373-2.229.571-3.663.571zm4.008-.632.355.934c1.301-.494 2.393-1.212 3.241-2.17l-.749-.663-.748-.663c-.605.683-1.412 1.231-2.454 1.627zm2.847-1.899.733.681c.714-.769 1.241-1.681 1.587-2.72l-.948-.316-.949-.317c-.263.789-.65 1.448-1.155 1.992zm1.372-2.355.941.338c.372-1.039.551-2.175.551-3.3969h-1-1c0 1.0279-.15 1.9309-.434 2.7209zm.492-3.0589h1c0-1.4615-.227-2.7899-.708-3.9646l-.925.3786-.926.3787c.364.8877.559 1.9499.559 3.2073zm-.633-3.586.935-.3534c-.456-1.2072-1.163-2.2213-2.125-3.0182l-.638.7701-.638.77c.679.5625 1.19 1.2828 1.53 2.1849zm-1.828-2.6015.642-.7662c-.843-.7074-1.856-1.2339-3.017-1.5949l-.297.9548-.297.9549c.949.2951 1.716.7062 2.326 1.2176zm-2.672-1.4063.297-.9548c-1.17-.3641-2.48-.5374-3.918-.5374v1 1c1.281 0 2.385.1548 3.324.4471zm-3.621-.4922v-1h-7.277v1 1h7.277zm-7.277 0h-1v16.0309h1 1v-16.0309zm50.835 15.5739-.919.394.919 2.149.92-2.149zm10.09-23.5895v-1h-.66l-.259.6067zm10.864 0 .901.4335.689-1.4335h-1.59zm-16.102 33.4685-.901-.433-.099.204v.227zm-.035 17.719v1h.998l.002-.998zm-9.844 0-1 .002.002.998h.998zm-.035-18.141 1-.002v-.226l-.098-.204zm-15.856-33.0465v-1h-1.588l.687 1.4326zm10.829 0 .919-.3933-.259-.6067h-.66zm10.089 23.5895.92.394 10.09-23.5902-.92-.3933-.919-.3933-10.09 23.5898zm10.09-23.5895v1h10.864v-1-1h-10.864zm10.864 0-.902-.4335-16.101 33.469.901.433.901.434 16.102-33.469zm-16.102 33.4685-1-.002-.035 17.719 1 .002 1 .002.035-17.719zm-.035 17.719v-1h-9.844v1 1h9.844zm-9.844 0 1-.002-.035-18.141-1 .002-1 .002.035 18.141zm-.035-18.141.902-.432-15.856-33.0471-.902.4326-.901.4326 15.855 33.0469zm-15.856-33.0465v1h10.829v-1-1h-10.829zm10.829 0-.92.3933 10.09 23.5902.919-.394.92-.393-10.09-23.5898z" fill="#000" mask="url(#b)"/></svg>