<svg fill="none" height="240" viewBox="0 0 240 240" width="240" xmlns="http://www.w3.org/2000/svg"><g stroke-width="12"><path d="m60 165c24.8528 0 45-20.147 45-45 0-24.8528-20.1472-45-45-45s-45 20.1472-45 45c0 24.853 20.1472 45 45 45z" stroke="#b83dba"/><path d="m120 165c24.853 0 45-20.147 45-45 0-24.8528-20.147-45-45-45-24.8528 0-45 20.1472-45 45 0 24.853 20.1472 45 45 45z" stroke="#a855f7"/><path d="m180 165c24.853 0 45-20.147 45-45 0-24.8528-20.147-45-45-45s-45 20.1472-45 45c0 24.853 20.147 45 45 45z" stroke="#9333ea"/></g></svg>